<svg id="svg" version="1.1" xmlns="http://www.w3.org/2000/svg" xmlns:xlink="http://www.w3.org/1999/xlink" width="400" height="400" viewBox="0, 0, 400,400"><g id="svgg"><path id="path0" d="M43.300 41.032 C 20.321 64.070,17.200 67.343,17.200 68.405 C 17.200 69.376,112.222 165.227,126.338 178.495 C 126.633 178.773,127.983 180.110,129.338 181.468 C 133.447 185.585,145.412 197.312,146.954 198.732 C 147.749 199.465,148.400 200.244,148.400 200.462 C 148.400 200.852,104.694 244.534,85.428 263.400 C 47.725 300.320,17.200 331.181,17.200 332.380 C 17.200 334.220,68.960 386.000,70.799 386.000 C 72.628 386.000,256.400 202.228,256.400 200.400 C 256.400 198.456,72.597 14.785,70.700 14.833 C 69.527 14.863,66.849 17.423,43.300 41.032 M176.900 41.032 C 153.971 64.020,150.800 67.344,150.800 68.400 C 150.800 69.586,258.434 178.000,259.612 178.000 C 259.839 178.000,260.143 178.307,260.287 178.681 C 260.578 179.440,265.421 184.400,265.871 184.400 C 266.279 184.400,268.400 186.484,268.400 186.885 C 268.400 187.301,271.866 190.800,272.278 190.800 C 272.696 190.800,277.200 195.299,277.200 195.716 C 277.200 196.157,278.242 197.200,278.683 197.200 C 279.159 197.200,282.000 200.007,282.000 200.477 C 282.000 201.056,223.887 258.800,223.304 258.800 C 223.027 258.800,222.800 259.030,222.800 259.311 C 222.800 259.848,217.599 265.200,217.077 265.200 C 216.665 265.200,214.000 267.890,214.000 268.305 C 214.000 268.706,211.085 271.600,210.682 271.600 C 209.596 271.600,150.800 331.297,150.800 332.400 C 150.800 334.222,202.578 386.000,204.399 386.000 C 206.228 386.000,390.000 202.228,390.000 200.400 C 390.000 198.456,206.197 14.785,204.300 14.833 C 203.127 14.863,200.449 17.423,176.900 41.032 " stroke="none" fill="#2c94dc" fill-rule="evenodd"></path><path id="path1" d="" stroke="none" fill="#3094dc" fill-rule="evenodd"></path><path id="path2" d="" stroke="none" fill="#3094dc" fill-rule="evenodd"></path><path id="path3" d="" stroke="none" fill="#3094dc" fill-rule="evenodd"></path><path id="path4" d="" stroke="none" fill="#3094dc" fill-rule="evenodd"></path></g></svg>